<?xml version="1.0" standalone="no"?><!DOCTYPE svg PUBLIC "-//W3C//DTD SVG 1.1//EN" "http://www.w3.org/Graphics/SVG/1.1/DTD/svg11.dtd"><svg t="1686416903913" class="icon" viewBox="0 0 1024 1024" version="1.1" xmlns="http://www.w3.org/2000/svg" p-id="1478" xmlns:xlink="http://www.w3.org/1999/xlink" width="200" height="200"><path d="M856.746667 581.973333c46.506667 7.253333 81.92 47.36 81.92 96 0 37.973333-21.333333 70.826667-53.333334 86.613334l-7.253333 3.413333H390.826667c-61.866667 0-111.786667-50.773333-111.786667-112.64 0-62.293333 50.346667-112.64 112.64-112.64l9.386667 0.426667-0.426667-8.533334a140.8 140.8 0 0 1 140.8-140.8c54.613333 0 101.973333 31.146667 125.44 75.52 19.2-11.52 42.24-19.2 67.413333-19.2a122.88 122.88 0 0 1 122.88 122.88l-0.426666 8.96M376.32 518.826667a137.301333 137.301333 0 0 0-122.026667 136.533333c0 29.013333 8.96 55.466667 23.04 77.653333H201.813333A116.48 116.48 0 0 1 85.333333 616.533333c0-61.866667 47.786667-111.786667 107.946667-116.053333l-2.986667-28.586667C190.293333 399.36 249.173333 341.333333 321.706667 341.333333c26.88 0 52.48 7.68 73.386666 21.333334a181.418667 181.418667 0 0 1 162.56-100.266667c93.866667 0 171.093333 71.68 180.48 162.986667h-3.84c-20.48 0-40.106667 4.266667-58.453333 11.946666a165.12 165.12 0 0 0-134.4-68.693333 165.973333 165.973333 0 0 0-165.12 150.186667z" fill="#1296db" p-id="1479"></path></svg>